<svg width="96" height="19" viewBox="0 0 96 19" fill="none" xmlns="http://www.w3.org/2000/svg">
<rect x="0.265625" width="95.7344" height="19" rx="9.5" fill="#72BF4C"/>
<path d="M33.948 7.252C33.948 7.77467 33.822 8.26467 33.57 8.722C33.3274 9.17933 32.94 9.548 32.408 9.828C31.8854 10.108 31.2227 10.248 30.42 10.248H28.782V14H26.822V4.228H30.42C31.176 4.228 31.82 4.35867 32.352 4.62C32.884 4.88133 33.2807 5.24067 33.542 5.698C33.8127 6.15533 33.948 6.67333 33.948 7.252ZM30.336 8.666C30.8774 8.666 31.2787 8.54467 31.54 8.302C31.8014 8.05 31.932 7.7 31.932 7.252C31.932 6.3 31.4 5.824 30.336 5.824H28.782V8.666H30.336ZM37.2996 7.448C37.5516 7.03733 37.8783 6.71533 38.2796 6.482C38.6903 6.24867 39.1569 6.132 39.6796 6.132V8.19H39.1616C38.5456 8.19 38.0789 8.33467 37.7616 8.624C37.4536 8.91333 37.2996 9.41733 37.2996 10.136V14H35.3396V6.244H37.2996V7.448ZM44.4438 14.126C43.6971 14.126 43.0251 13.9627 42.4278 13.636C41.8304 13.3 41.3591 12.8287 41.0138 12.222C40.6778 11.6153 40.5098 10.9153 40.5098 10.122C40.5098 9.32867 40.6824 8.62867 41.0278 8.022C41.3824 7.41533 41.8631 6.94867 42.4698 6.622C43.0764 6.286 43.7531 6.118 44.4998 6.118C45.2464 6.118 45.9231 6.286 46.5298 6.622C47.1364 6.94867 47.6124 7.41533 47.9578 8.022C48.3124 8.62867 48.4898 9.32867 48.4898 10.122C48.4898 10.9153 48.3078 11.6153 47.9438 12.222C47.5891 12.8287 47.1038 13.3 46.4878 13.636C45.8811 13.9627 45.1998 14.126 44.4438 14.126ZM44.4438 12.418C44.7984 12.418 45.1298 12.334 45.4378 12.166C45.7551 11.9887 46.0071 11.7273 46.1938 11.382C46.3804 11.0367 46.4738 10.6167 46.4738 10.122C46.4738 9.38467 46.2778 8.82 45.8858 8.428C45.5031 8.02667 45.0318 7.826 44.4718 7.826C43.9118 7.826 43.4404 8.02667 43.0578 8.428C42.6844 8.82 42.4978 9.38467 42.4978 10.122C42.4978 10.8593 42.6798 11.4287 43.0438 11.83C43.4171 12.222 43.8838 12.418 44.4438 12.418ZM59.5595 6.132C60.5115 6.132 61.2768 6.426 61.8555 7.014C62.4435 7.59267 62.7375 8.40467 62.7375 9.45V14H60.7775V9.716C60.7775 9.10933 60.6235 8.64733 60.3155 8.33C60.0075 8.00333 59.5875 7.84 59.0555 7.84C58.5235 7.84 58.0988 8.00333 57.7815 8.33C57.4735 8.64733 57.3195 9.10933 57.3195 9.716V14H55.3595V9.716C55.3595 9.10933 55.2055 8.64733 54.8975 8.33C54.5895 8.00333 54.1695 7.84 53.6375 7.84C53.0962 7.84 52.6668 8.00333 52.3495 8.33C52.0415 8.64733 51.8875 9.10933 51.8875 9.716V14H49.9275V6.244H51.8875V7.182C52.1395 6.85533 52.4615 6.59867 52.8535 6.412C53.2548 6.22533 53.6935 6.132 54.1695 6.132C54.7762 6.132 55.3175 6.26267 55.7935 6.524C56.2695 6.776 56.6382 7.14 56.8995 7.616C57.1515 7.168 57.5155 6.80867 57.9915 6.538C58.4768 6.26733 58.9995 6.132 59.5595 6.132ZM68.0414 14.126C67.2948 14.126 66.6228 13.9627 66.0254 13.636C65.4281 13.3 64.9568 12.8287 64.6114 12.222C64.2754 11.6153 64.1074 10.9153 64.1074 10.122C64.1074 9.32867 64.2801 8.62867 64.6254 8.022C64.9801 7.41533 65.4608 6.94867 66.0674 6.622C66.6741 6.286 67.3508 6.118 68.0974 6.118C68.8441 6.118 69.5208 6.286 70.1274 6.622C70.7341 6.94867 71.2101 7.41533 71.5554 8.022C71.9101 8.62867 72.0874 9.32867 72.0874 10.122C72.0874 10.9153 71.9054 11.6153 71.5414 12.222C71.1868 12.8287 70.7014 13.3 70.0854 13.636C69.4788 13.9627 68.7974 14.126 68.0414 14.126ZM68.0414 12.418C68.3961 12.418 68.7274 12.334 69.0354 12.166C69.3528 11.9887 69.6048 11.7273 69.7914 11.382C69.9781 11.0367 70.0714 10.6167 70.0714 10.122C70.0714 9.38467 69.8754 8.82 69.4834 8.428C69.1008 8.02667 68.6294 7.826 68.0694 7.826C67.5094 7.826 67.0381 8.02667 66.6554 8.428C66.2821 8.82 66.0954 9.38467 66.0954 10.122C66.0954 10.8593 66.2774 11.4287 66.6414 11.83C67.0148 12.222 67.4814 12.418 68.0414 12.418Z" fill="white"/>
</svg>
