<svg width="87" height="19" viewBox="0 0 87 19" fill="none" xmlns="http://www.w3.org/2000/svg">
<rect x="0.5625" width="86.4375" height="19" rx="9.5" fill="#4CA3BF"/>
<path d="M19.9377 4.228V5.81H17.3337V14H15.3737V5.81H12.7697V4.228H19.9377ZM24.8118 14.126C24.0651 14.126 23.3931 13.9627 22.7958 13.636C22.1984 13.3 21.7271 12.8287 21.3818 12.222C21.0458 11.6153 20.8778 10.9153 20.8778 10.122C20.8778 9.32867 21.0504 8.62867 21.3958 8.022C21.7504 7.41533 22.2311 6.94867 22.8378 6.622C23.4444 6.286 24.1211 6.118 24.8678 6.118C25.6144 6.118 26.2911 6.286 26.8978 6.622C27.5044 6.94867 27.9804 7.41533 28.3258 8.022C28.6804 8.62867 28.8578 9.32867 28.8578 10.122C28.8578 10.9153 28.6758 11.6153 28.3118 12.222C27.9571 12.8287 27.4718 13.3 26.8558 13.636C26.2491 13.9627 25.5678 14.126 24.8118 14.126ZM24.8118 12.418C25.1664 12.418 25.4978 12.334 25.8058 12.166C26.1231 11.9887 26.3751 11.7273 26.5618 11.382C26.7484 11.0367 26.8418 10.6167 26.8418 10.122C26.8418 9.38467 26.6458 8.82 26.2538 8.428C25.8711 8.02667 25.3998 7.826 24.8398 7.826C24.2798 7.826 23.8084 8.02667 23.4258 8.428C23.0524 8.82 22.8658 9.38467 22.8658 10.122C22.8658 10.8593 23.0478 11.4287 23.4118 11.83C23.7851 12.222 24.2518 12.418 24.8118 12.418ZM32.2555 7.364C32.5075 7.00933 32.8528 6.71533 33.2915 6.482C33.7395 6.23933 34.2482 6.118 34.8175 6.118C35.4802 6.118 36.0775 6.28133 36.6095 6.608C37.1508 6.93467 37.5755 7.40133 37.8835 8.008C38.2008 8.60533 38.3595 9.30067 38.3595 10.094C38.3595 10.8873 38.2008 11.592 37.8835 12.208C37.5755 12.8147 37.1508 13.286 36.6095 13.622C36.0775 13.958 35.4802 14.126 34.8175 14.126C34.2482 14.126 33.7442 14.0093 33.3055 13.776C32.8762 13.5427 32.5262 13.2487 32.2555 12.894V17.696H30.2955V6.244H32.2555V7.364ZM36.3575 10.094C36.3575 9.62733 36.2595 9.226 36.0635 8.89C35.8768 8.54467 35.6248 8.28333 35.3075 8.106C34.9995 7.92867 34.6635 7.84 34.2995 7.84C33.9448 7.84 33.6088 7.93333 33.2915 8.12C32.9835 8.29733 32.7315 8.55867 32.5355 8.904C32.3488 9.24933 32.2555 9.65533 32.2555 10.122C32.2555 10.5887 32.3488 10.9947 32.5355 11.34C32.7315 11.6853 32.9835 11.9513 33.2915 12.138C33.6088 12.3153 33.9448 12.404 34.2995 12.404C34.6635 12.404 34.9995 12.3107 35.3075 12.124C35.6248 11.9373 35.8768 11.6713 36.0635 11.326C36.2595 10.9807 36.3575 10.57 36.3575 10.094ZM42.7518 14.126C42.1171 14.126 41.5478 14.014 41.0438 13.79C40.5398 13.5567 40.1385 13.244 39.8398 12.852C39.5505 12.46 39.3918 12.026 39.3638 11.55H41.3378C41.3751 11.8487 41.5198 12.096 41.7718 12.292C42.0331 12.488 42.3551 12.586 42.7378 12.586C43.1111 12.586 43.4005 12.5113 43.6058 12.362C43.8205 12.2127 43.9278 12.0213 43.9278 11.788C43.9278 11.536 43.7971 11.3493 43.5358 11.228C43.2838 11.0973 42.8778 10.9573 42.3178 10.808C41.7391 10.668 41.2631 10.5233 40.8898 10.374C40.5258 10.2247 40.2085 9.996 39.9378 9.688C39.6765 9.38 39.5458 8.96467 39.5458 8.442C39.5458 8.01267 39.6671 7.62067 39.9098 7.266C40.1618 6.91133 40.5165 6.63133 40.9738 6.426C41.4405 6.22067 41.9865 6.118 42.6118 6.118C43.5358 6.118 44.2731 6.35133 44.8238 6.818C45.3745 7.27533 45.6778 7.896 45.7338 8.68H43.8578C43.8298 8.372 43.6991 8.12933 43.4658 7.952C43.2418 7.76533 42.9385 7.672 42.5558 7.672C42.2011 7.672 41.9258 7.73733 41.7298 7.868C41.5431 7.99867 41.4498 8.18067 41.4498 8.414C41.4498 8.67533 41.5805 8.876 41.8418 9.016C42.1031 9.14667 42.5091 9.282 43.0598 9.422C43.6198 9.562 44.0818 9.70667 44.4458 9.856C44.8098 10.0053 45.1225 10.2387 45.3838 10.556C45.6545 10.864 45.7945 11.2747 45.8038 11.788C45.8038 12.236 45.6778 12.6373 45.4258 12.992C45.1831 13.3467 44.8285 13.6267 44.3618 13.832C43.9045 14.028 43.3678 14.126 42.7518 14.126ZM54.6227 9.954C54.6227 10.234 54.604 10.486 54.5667 10.71H48.8967C48.9434 11.27 49.1394 11.7087 49.4847 12.026C49.83 12.3433 50.2547 12.502 50.7587 12.502C51.4867 12.502 52.0047 12.1893 52.3127 11.564H54.4267C54.2027 12.3107 53.7734 12.9267 53.1387 13.412C52.504 13.888 51.7247 14.126 50.8007 14.126C50.054 14.126 49.382 13.9627 48.7847 13.636C48.1967 13.3 47.7347 12.8287 47.3987 12.222C47.072 11.6153 46.9087 10.9153 46.9087 10.122C46.9087 9.31933 47.072 8.61467 47.3987 8.008C47.7254 7.40133 48.1827 6.93467 48.7707 6.608C49.3587 6.28133 50.0354 6.118 50.8007 6.118C51.538 6.118 52.196 6.27667 52.7747 6.594C53.3627 6.91133 53.8154 7.364 54.1327 7.952C54.4594 8.53067 54.6227 9.198 54.6227 9.954ZM52.5927 9.394C52.5834 8.89 52.4014 8.48867 52.0467 8.19C51.692 7.882 51.258 7.728 50.7447 7.728C50.2594 7.728 49.8487 7.87733 49.5127 8.176C49.186 8.46533 48.9854 8.87133 48.9107 9.394H52.5927ZM58.0133 3.64V14H56.0533V3.64H58.0133ZM61.9098 3.64V14H59.9498V3.64H61.9098ZM71.0563 9.954C71.0563 10.234 71.0376 10.486 71.0003 10.71H65.3303C65.377 11.27 65.573 11.7087 65.9183 12.026C66.2636 12.3433 66.6883 12.502 67.1923 12.502C67.9203 12.502 68.4383 12.1893 68.7463 11.564H70.8603C70.6363 12.3107 70.207 12.9267 69.5723 13.412C68.9376 13.888 68.1583 14.126 67.2343 14.126C66.4876 14.126 65.8156 13.9627 65.2183 13.636C64.6303 13.3 64.1683 12.8287 63.8323 12.222C63.5056 11.6153 63.3423 10.9153 63.3423 10.122C63.3423 9.31933 63.5056 8.61467 63.8323 8.008C64.159 7.40133 64.6163 6.93467 65.2043 6.608C65.7923 6.28133 66.469 6.118 67.2343 6.118C67.9716 6.118 68.6296 6.27667 69.2083 6.594C69.7963 6.91133 70.249 7.364 70.5663 7.952C70.893 8.53067 71.0563 9.198 71.0563 9.954ZM69.0263 9.394C69.017 8.89 68.835 8.48867 68.4803 8.19C68.1256 7.882 67.6916 7.728 67.1783 7.728C66.693 7.728 66.2823 7.87733 65.9463 8.176C65.6196 8.46533 65.419 8.87133 65.3443 9.394H69.0263ZM74.4469 7.448C74.6989 7.03733 75.0256 6.71533 75.4269 6.482C75.8376 6.24867 76.3042 6.132 76.8269 6.132V8.19H76.3089C75.6929 8.19 75.2262 8.33467 74.9089 8.624C74.6009 8.91333 74.4469 9.41733 74.4469 10.136V14H72.4869V6.244H74.4469V7.448Z" fill="white"/>
</svg>
