<svg width="181" height="94" viewBox="0 0 181 94" fill="none" xmlns="http://www.w3.org/2000/svg">
<g clip-path="url(#clip0_1631_2532)">
<path d="M0.125916 94.0004C-0.187213 92.9665 0.0215395 92.7167 1.24506 92.7167C11.1666 92.7167 21.0881 92.7051 31.0155 92.7051C70.5393 92.7051 110.057 92.7051 149.581 92.7051C159.769 92.7051 169.958 92.7109 180.152 92.7167C181.051 92.7167 181.097 92.7922 180.935 94.0004H0.125916Z" fill="white"/>
<path d="M125.038 38.8009C125.038 39.2772 125.038 39.7535 125.038 40.2298C125.049 44.865 125.055 49.506 125.084 54.1413C125.084 54.6234 124.91 54.6931 124.493 54.6873C122.092 54.6699 119.691 54.6641 117.291 54.6931C116.833 54.6931 116.728 54.5827 116.728 54.1297C116.734 43.0585 116.728 31.9874 116.711 20.9163C116.711 20.2773 116.873 20.045 117.54 20.0624C121.831 20.1728 126.128 19.9753 130.419 20.1437C132.141 20.2076 133.858 20.3529 135.51 20.8814C136.867 21.3171 138.207 21.8398 139.314 22.746C141.726 24.7151 142.619 27.358 142.445 30.4017C142.306 32.8645 141.338 34.9846 139.471 36.5762C138.473 37.43 137.354 38.1852 135.945 38.3943C135.406 38.4756 134.843 38.7776 134.281 38.9635C133.927 39.0855 134.095 39.4166 134.293 39.6663C134.814 40.3285 135.365 40.9733 135.835 41.6703C137.302 43.8485 138.676 46.1022 140.213 48.2282C141.494 50.0114 142.619 51.8992 143.942 53.6534C144.029 53.7695 144.104 53.8973 144.162 54.0251C144.249 54.2168 144.504 54.391 144.382 54.6002C144.26 54.8151 143.982 54.6873 143.773 54.6873C141.106 54.6815 138.439 54.6524 135.771 54.6699C135.191 54.6699 134.861 54.4898 134.553 53.9845C131.782 49.4886 128.975 45.0102 126.186 40.5202C125.826 39.9451 125.513 39.3469 125.177 38.7602C125.131 38.7718 125.084 38.7834 125.032 38.7951L125.038 38.8009ZM127.009 25.7374C126.551 25.7374 126.087 25.7664 125.629 25.7316C125.142 25.6909 125.02 25.8768 125.026 26.3531C125.055 28.3919 125.049 30.4249 125.026 32.4637C125.02 33.1085 125.102 33.7474 124.922 34.398C124.829 34.7232 125.096 35.1357 125.508 34.9091C125.867 34.7174 126.203 34.7291 126.551 34.7349C128.036 34.7581 129.503 34.6013 130.964 34.3863C132.402 34.1772 133.626 33.579 134.084 32.0571C134.333 31.2149 134.31 30.3436 134.194 29.4665C133.991 27.904 133.127 26.8991 131.66 26.446C130.146 25.9755 128.587 25.8013 127.004 25.7432L127.009 25.7374Z" fill="white"/>
<path d="M155.574 36.9249C155.574 37.8368 155.574 38.7546 155.574 39.6665C155.58 44.4992 155.586 49.3261 155.609 54.1589C155.609 54.548 155.493 54.6642 155.116 54.6642C152.64 54.6642 150.17 54.67 147.694 54.7049C147.079 54.7107 147.276 54.2925 147.276 54.0078C147.276 47.9611 147.282 41.9202 147.282 35.8735C147.282 30.8491 147.282 25.8247 147.253 20.8003C147.253 20.2252 147.381 20.0394 148.001 20.0452C150.257 20.08 152.512 20.0452 154.768 20.0103C155.4 19.9987 155.615 20.1671 155.615 20.8584C155.58 25.7318 155.597 30.6109 155.597 35.5773C156.102 34.9267 156.554 34.3226 157.03 33.736C159.616 30.5529 162.208 27.3756 164.794 24.1983C165.82 22.9378 166.847 21.6832 167.856 20.4169C168.122 20.08 168.47 20.0394 168.83 20.0394C171.573 20.0394 174.31 20.051 177.052 20.0684C177.215 20.0684 177.418 20.0394 177.464 20.2601C177.511 20.4692 177.412 20.6318 177.25 20.7654C176.27 21.5612 175.51 22.5777 174.687 23.5071C173.811 24.4887 173.005 25.5517 172.089 26.4985C170.941 27.6892 170.013 29.0601 168.812 30.216C168.041 30.9537 167.461 31.9121 166.725 32.7136C165.965 33.5385 165.246 34.3981 164.463 35.1939C164.063 35.6063 164.116 35.9084 164.429 36.3208C165.797 38.1098 167.148 39.9105 168.505 41.7111C171.532 45.7248 174.553 49.7386 177.58 53.7523C177.696 53.9091 177.812 54.0601 177.916 54.2228C178.131 54.548 178.05 54.7107 177.65 54.6933C174.669 54.5539 171.683 54.641 168.702 54.6758C168.349 54.6758 168.128 54.5132 167.937 54.2286C166.348 51.8238 164.655 49.4888 162.979 47.1479C161.002 44.3889 159.036 41.6182 157.053 38.8649C156.589 38.226 156.189 37.5406 155.76 36.8784C155.696 36.8958 155.632 36.9132 155.568 36.9307L155.574 36.9249Z" fill="white"/>
<path d="M103.403 54.9375C103.067 54.9898 102.835 54.7865 102.615 54.618C97.6628 50.7669 92.5193 47.1656 87.4629 43.4539C82.0121 39.4577 76.5498 35.473 71.0758 31.4941C67.3125 28.7583 63.5259 26.0515 59.7568 23.3331C58.8754 22.6941 58.0926 21.9216 57.1126 21.4221C56.898 21.3117 56.6371 21.1258 56.7125 20.8761C56.7995 20.5798 57.1358 20.725 57.3503 20.725C68.9245 20.7192 80.4929 20.7192 92.067 20.725C99.1008 20.725 106.135 20.725 113.174 20.7425C113.621 20.7425 114.311 20.6437 114.421 21.0329C114.531 21.4395 113.812 21.5092 113.476 21.7532C111.962 22.8452 110.437 23.9139 108.924 25.006C105.172 27.7186 101.432 30.437 97.6802 33.1496C96.6306 33.9105 96.6712 33.957 97.0829 35.1651C98.0397 37.9997 98.9327 40.8575 99.8489 43.7095C100.846 46.7881 101.826 49.8724 102.853 52.9451C103.073 53.6015 103.496 54.1882 103.421 54.9375H103.403ZM95.7376 44.0929C94.9316 42.3619 94.4967 40.7297 93.9748 39.1266C93.279 36.9832 92.5947 34.8399 91.8931 32.6965C91.7945 32.3944 91.7887 32.2144 92.1134 31.9878C94.4677 30.3266 96.7988 28.6247 99.1356 26.9402C99.988 26.3245 100.852 25.7262 101.78 25.0698C101.444 24.9014 101.154 24.9188 100.869 24.9246C92.4555 25.1047 84.0417 25.0234 75.6278 24.9943C73.7606 24.9885 71.8934 25.0757 70.0263 24.9304C69.8291 24.913 69.5392 24.8317 69.4522 25.0815C69.3362 25.4009 69.6551 25.459 69.8523 25.5752C70.2234 25.7901 70.6177 25.9876 70.9656 26.2374C74.526 28.7989 78.0864 31.3547 81.6236 33.9511C85.9436 37.1168 90.3332 40.1779 94.5547 43.4772C94.8446 43.7037 95.1577 43.8722 95.7318 44.0813L95.7376 44.0929Z" fill="white"/>
<path d="M30.8769 37.2909C30.8769 31.7611 30.8769 26.2256 30.8711 20.6958C30.8711 20.266 30.9059 20.0627 31.4394 20.0685C34.5649 20.1091 37.6961 20.0104 40.8216 20.1382C43.0483 20.2311 45.3098 20.1614 47.4901 20.8526C49.5196 21.4974 51.4332 22.2932 52.8655 23.9602C54.0832 25.3833 54.7385 27.0504 54.953 28.8801C55.3009 31.8366 54.924 34.677 52.9699 37.0469C51.3172 39.0509 49.1369 40.259 46.5913 40.8631C44.353 41.3975 42.0915 41.4672 39.8127 41.415C39.2792 41.4033 39.1864 41.5718 39.1922 42.0597C39.2096 45.7946 39.2096 49.5353 39.1806 53.2702C39.1806 53.7291 39.5575 54.3332 39.111 54.6178C38.7863 54.8211 38.218 54.6411 37.7599 54.6411C35.626 54.6527 33.4921 54.6527 31.3582 54.6933C30.9813 54.6991 30.8827 54.5423 30.8769 54.2403C30.8769 53.6594 30.8885 53.0785 30.8885 52.4977C30.8885 47.4268 30.8885 42.3559 30.8885 37.2851C30.8885 37.2851 30.8885 37.2851 30.8827 37.2851L30.8769 37.2909ZM39.1748 30.5762C39.1748 30.5762 39.2328 30.5762 39.2618 30.5762C39.2618 32.1271 39.2618 33.6779 39.2618 35.2288C39.2618 35.4321 39.1574 35.7284 39.6097 35.6645C40.6361 35.5076 41.6798 35.6064 42.7178 35.4379C44.2081 35.1998 46.0926 34.131 46.3652 32.615C46.4869 31.947 46.6261 31.2732 46.6319 30.6052C46.6493 28.6129 45.9361 26.9226 44.2718 26.2372C42.7352 25.604 41.1464 25.6679 39.5633 25.5982C39.0994 25.5808 39.1806 25.9177 39.1806 26.2023C39.1806 27.6603 39.1806 29.1124 39.1806 30.5704L39.1748 30.5762Z" fill="white"/>
<path d="M14.0028 19.2434C16.8268 19.1505 19.3898 19.6384 21.7324 20.9976C22.782 21.6075 23.7214 22.3801 24.5042 23.3268C24.8405 23.7334 24.7825 24.0123 24.3708 24.355C22.9792 25.4818 21.5527 26.568 20.3755 27.933C20.2132 28.1189 20.1262 28.0144 20.0392 27.933C19.8827 27.7878 19.7319 27.6252 19.6043 27.4451C18.5258 25.9523 17.0471 25.1972 15.2263 25.0752C13.7129 24.9707 12.1762 24.9997 10.8541 25.749C10.0771 26.1905 9.36386 26.9224 9.09712 27.875C8.85937 28.7346 8.86517 29.5827 9.42764 30.3726C10.4888 31.8654 12.0313 32.6612 13.6433 33.3466C16.1831 34.427 18.7925 35.3506 21.1178 36.8724C23.6228 38.5104 25.6292 40.5667 26.0641 43.6626C26.6149 47.6008 24.9971 51.208 21.5701 53.299C18.4562 55.1984 15.0002 55.6689 11.3934 55.4889C8.89416 55.3611 6.48771 54.9429 4.24942 53.7986C2.74756 53.0318 1.54144 51.9108 0.584655 50.5284C0.404896 50.267 0.422292 50.0811 0.671635 49.8488C2.02273 48.5999 3.32163 47.293 4.53356 45.8989C4.7887 45.6027 5.01485 45.411 5.28159 45.928C6.48771 48.3095 8.61583 49.2737 11.1151 49.5293C12.9126 49.7152 14.6754 49.5351 16.2933 48.5825C18.0851 47.5253 19.123 44.5978 16.9079 42.8262C16.0323 42.1234 15.1219 41.496 14.1188 41.0081C11.4514 39.6954 8.61583 38.7254 6.12239 37.0757C4.45817 35.9779 2.80555 34.8046 1.88356 32.9807C0.451285 30.1461 0.486078 27.2825 2.25468 24.5815C4.08706 21.776 6.84723 20.3935 10.0307 19.6849C11.3876 19.3828 12.7445 19.197 14.0028 19.2609V19.2434Z" fill="white"/>
<path d="M71.8981 68.8079C71.4342 69.0577 71.2834 69.4875 71.1443 69.8767C70.4368 71.8981 69.3467 73.7394 68.4479 75.6678C67.3635 77.9971 66.2676 80.3205 65.1832 82.6439C65.1021 82.8182 65.0731 83.0157 64.9919 83.1899C64.8875 83.4048 65.0093 83.7824 64.6034 83.794C64.2728 83.7998 64.1569 83.5384 64.0641 83.2887C63.6234 82.1037 62.9565 81.0233 62.4869 79.8558C61.0082 76.1848 58.9555 72.781 57.6044 69.0577C57.5754 68.9764 57.4942 68.9183 57.442 68.8486C57.21 68.9938 57.2332 69.1913 57.2274 69.383C57.1231 72.8274 56.3808 76.2138 56.2069 79.6525C56.1547 80.64 56.0445 81.6216 55.9169 82.6033C55.859 83.0621 55.598 83.1144 55.3023 83.2306C55.2385 83.2538 55.1573 83.2364 55.0877 83.2422C53.812 83.3177 53.7772 83.3177 53.9396 82.0689C54.2875 79.3795 54.6876 76.6901 55.0529 74.0008C55.511 70.6144 56.0909 67.2454 56.3113 63.83C56.3287 63.5918 56.3287 63.3885 56.6418 63.3943C56.8621 63.3943 57.1057 63.3653 57.1521 63.6615C57.3724 65.0846 58.2306 66.2405 58.7815 67.5242C60.4805 71.4508 62.4173 75.2728 64.0699 79.2285C64.1047 79.3156 64.1395 79.4085 64.1859 79.4957C64.2728 79.6351 64.2844 79.8674 64.4874 79.8674C64.6845 79.8674 64.7309 79.6583 64.7889 79.5073C65.2992 78.09 66.0356 76.7773 66.6677 75.4181C68.4537 71.5728 70.2745 67.7449 72.0837 63.9113C72.1938 63.679 72.391 63.5163 72.6519 63.4989C73.0115 63.4698 72.9071 63.7719 72.9187 63.9578C73.0926 66.9143 73.5507 69.836 73.9334 72.7694C74.2988 75.5807 74.6989 78.3862 75.0874 81.1976C75.157 81.7029 75.2671 82.1967 75.3483 82.702C75.3715 82.8588 75.4701 83.1028 75.2787 83.1609C74.6931 83.3468 74.0726 83.3119 73.4869 83.1957C73.0694 83.1144 73.1796 82.6497 73.1448 82.3244C72.7853 78.5837 72.4316 74.8372 72.0663 71.0965C71.9909 70.3588 72.0953 69.6037 71.9097 68.8195L71.8981 68.8079Z" fill="white"/>
<path d="M134.609 63.4355C137.566 63.4994 140.553 64.7831 142.785 67.5015C145.667 71.0099 145.731 76.3073 142.362 80.0248C139.277 83.4286 133.722 84.6426 129.471 82.9C126.526 81.6918 124.38 79.682 123.319 76.6326C122.13 73.2287 122.977 69.2092 125.656 66.6476C128.016 64.3939 130.857 63.4703 134.609 63.4297V63.4355ZM142.715 73.6179C142.872 70.1792 140.315 67.2053 138.024 66.1307C134.696 64.5624 131.472 64.754 128.393 66.8684C125.517 68.8433 124.189 72.9209 125.366 76.1621C126.96 80.5533 131.344 82.4702 135.525 81.8196C139.781 81.1632 142.86 77.1669 142.715 73.6179Z" fill="white"/>
<path d="M40.4464 63.4004C43.972 63.6444 47.0569 64.8641 49.2835 67.8265C51.9046 71.3117 51.6262 76.6904 48.6921 79.9258C47.6483 81.0759 46.4364 81.982 45.0215 82.5919C40.5681 84.4913 35.0768 84.1602 31.3134 79.7631C27.1558 74.9014 28.6576 67.3212 35.2217 64.4285C36.1321 64.0277 37.0947 63.7547 38.0747 63.5979C38.8401 63.4759 39.6171 63.4643 40.4464 63.4004ZM40.1796 65.1372C39.333 65.143 38.4748 65.1836 37.6572 65.4043C34.3172 66.2872 30.7742 69.6097 31.2381 74.2914C31.5106 77.0796 32.9081 79.1881 35.2333 80.5937C37.7906 82.1446 40.5623 82.3886 43.4037 81.3547C45.9841 80.4195 47.8455 78.6421 48.5703 76.034C50.3505 69.6272 45.1607 65.0733 40.1796 65.1372Z" fill="white"/>
<path d="M88.9693 83.6612C84.8232 83.5799 81.5238 81.9302 79.3435 78.3173C77.024 74.4837 77.8706 69.3256 81.2338 66.3749C85.838 62.3379 92.8196 62.3786 97.273 66.6072C99.5461 68.768 100.393 71.5561 100.056 74.6986C99.4765 80.1702 94.2171 83.7483 88.9635 83.6554L88.9693 83.6612ZM97.9456 73.5485C98.0732 71.4283 97.0004 69.3779 95.8175 68.0652C92.4137 64.2722 85.7858 63.9469 82.1326 68.3324C79.8132 71.1205 79.5116 75.0006 81.6455 78.0966C83.4083 80.6582 85.9018 81.785 88.9287 81.9535C93.7996 82.2148 98.1544 78.1721 97.9456 73.5543V73.5485Z" fill="white"/>
<path d="M163.343 78.8748C163.343 78.0384 163.343 77.2484 163.343 76.4584C163.332 72.4796 163.332 68.4949 163.291 64.516C163.291 63.9816 163.407 63.819 163.946 63.7842C165.477 63.6854 165.216 63.6506 165.216 64.9865C165.216 70.4466 165.228 75.9066 165.216 81.3725C165.216 82.116 165.471 82.8479 165.297 83.603C164.775 83.5914 164.503 83.2196 164.242 82.9001C161.702 79.8042 158.861 76.9812 156.234 73.9608C154.587 72.0614 152.819 70.2665 151.23 68.309C151.119 68.1754 151.004 67.9489 150.772 68.0593C150.592 68.1464 150.661 68.3613 150.667 68.5239C150.812 72.4563 150.731 76.3829 150.76 80.3153C150.76 81.0937 150.76 81.872 150.818 82.6446C150.853 83.1209 150.673 83.2138 150.255 83.237C148.777 83.3067 148.783 83.3184 148.783 81.8023C148.777 75.8776 148.759 69.9587 148.759 64.0339C148.759 63.8132 148.591 63.4879 148.881 63.3892C149.2 63.2788 149.484 63.4821 149.705 63.7319C150.922 65.1143 152.123 66.5142 153.358 67.8792C156.17 70.9926 158.994 74.1002 161.835 77.1787C162.34 77.7247 162.607 78.4798 163.343 78.8748Z" fill="white"/>
<path d="M85.2977 -0.000101621C85.6224 0.168347 85.7268 0.464583 85.8195 0.76082C87.5997 6.21506 89.3799 11.6751 91.1659 17.1294C91.2993 17.5418 91.508 17.9309 91.6472 18.3375C91.7864 18.7383 91.7806 19.0171 91.1891 18.9765C90.1975 18.9126 89.2002 18.8719 88.2086 18.9358C87.4374 18.9881 87.217 18.5757 87.0373 17.9658C86.5618 16.3742 86.0515 14.7885 85.5528 13.197C85.3151 13.2028 85.3093 13.4061 85.2745 13.5455C84.8222 15.1603 84.2017 16.7344 83.8596 18.3782C83.7668 18.8138 83.4885 18.93 83.1348 18.93C81.9924 18.93 80.8559 18.9126 79.7135 18.901C79.0699 18.8952 79.3366 18.4305 79.412 18.1749C79.6961 17.2281 80.0499 16.2987 80.3572 15.3519C81.9866 10.2985 83.8016 5.29731 85.2165 0.174155C85.2339 0.110261 85.2745 0.0521755 85.3151 -0.0117188L85.2977 -0.000101621Z" fill="white"/>
<path d="M75.3648 44.2554C76.8724 43.146 78.3395 42.1005 79.766 41.0084C80.1255 40.7354 80.3516 40.7354 80.6938 41.0084C81.494 41.6358 82.2826 42.2747 83.164 42.7917C83.6163 43.0531 83.8308 43.3319 83.1988 43.7094C81.6273 44.6562 80.1893 45.8005 78.699 46.8577C77.4697 47.729 76.2868 48.7048 75.0401 49.547C73.399 50.6565 71.9088 51.9634 70.2098 53.0031C69.5023 53.4388 68.7891 53.9732 68.1802 54.5889C68.0294 54.7399 67.8265 54.9548 67.6177 54.8328C67.3626 54.6818 67.5772 54.4378 67.6467 54.252C68.8993 50.8307 69.9662 47.3456 71.0738 43.8779C71.8276 41.508 72.7148 39.1846 73.3236 36.7682C73.5498 35.8795 73.5672 35.8911 74.292 36.4022C75.0632 36.9483 75.8113 37.5291 76.6173 38.0112C77.1566 38.3307 77.2088 38.685 77.0174 39.2136C76.4549 40.7761 75.9099 42.3502 75.3648 43.9243C75.3358 44.0057 75.3648 44.0986 75.3648 44.2554Z" fill="white"/>
<path d="M20.3146 74.1576C21.5382 75.6504 22.7965 77.1258 23.9852 78.6534C24.9826 79.9371 26.0263 81.1744 27.0759 82.4174C27.2325 82.5975 27.5398 82.8298 27.4064 83.0854C27.2789 83.3351 26.9251 83.2016 26.67 83.248C25.5045 83.4571 24.7854 82.946 24.0838 82.005C22.147 79.4027 20.0827 76.8876 18.0764 74.3377C17.885 74.0937 17.6705 73.9369 17.3631 73.8962C17.0326 73.8498 16.8586 73.9427 16.8702 74.3144C16.9398 77.0793 16.7601 79.8442 16.963 82.6091C16.9978 83.1028 16.8818 83.2422 16.4005 83.2422C14.9567 83.2538 14.9625 83.2712 14.9567 81.854C14.9393 76.6379 14.9219 71.4218 14.9045 66.2057C14.9045 65.5726 14.8697 64.9452 14.8465 64.3121C14.8349 64.0739 14.8465 63.8474 15.1596 63.8532C17.4327 63.8765 19.7348 63.5454 21.9499 64.254C24.6173 65.1021 25.632 66.7749 25.4291 69.7838C25.2725 72.0723 23.6025 73.7394 21.312 73.902C20.8597 73.933 20.5273 74.0182 20.3146 74.1576ZM18.8012 65.5551C18.3721 65.5377 18.0242 65.5493 17.6936 65.497C17.0442 65.3983 16.8528 65.6655 16.8644 66.2986C16.905 67.8495 16.8702 69.4062 16.8992 70.9571C16.9108 71.4799 16.6847 72.1362 17.0442 72.4847C17.2645 72.6997 17.9082 72.4557 18.3605 72.4499C19.4796 72.4383 20.593 72.386 21.6599 72.0143C22.2746 71.7993 22.8545 71.445 23.0226 70.8061C23.3474 69.5688 23.4227 68.3142 22.8197 67.1118C22.5471 66.5716 22.147 66.1941 21.5672 65.9675C20.6394 65.6132 19.6826 65.5377 18.8012 65.5435V65.5551Z" fill="white"/>
<path d="M0.591736 73.5536C0.591736 70.6668 0.591736 67.7799 0.591736 64.893C0.591736 63.8649 0.591736 63.8649 1.60071 63.8707C3.3693 63.8824 5.1379 63.7836 6.9065 63.9753C9.82323 64.2948 11.3773 66.0257 11.5049 68.9707C11.586 70.8817 11.1395 72.4965 9.48111 73.5768C8.35037 74.3145 7.00508 74.361 5.71197 74.4772C4.84217 74.5585 3.96657 74.5585 3.09677 74.5643C2.67926 74.5643 2.5169 74.663 2.5169 75.1452C2.5169 77.5731 2.5053 79.9953 2.58068 82.4233C2.58648 82.6847 2.77204 83.1145 2.38933 83.1784C1.85585 83.2655 1.24119 83.4107 0.771495 83.1087C0.510555 82.9461 0.632327 82.4291 0.632327 82.069C0.632327 80.6401 0.632327 79.2053 0.638126 77.7764C0.638126 76.3708 0.638126 74.9593 0.638126 73.5536C0.62073 73.5536 0.603334 73.5536 0.585938 73.5536H0.591736ZM2.53429 69.2437C2.53429 69.2437 2.56909 69.2437 2.58648 69.2437C2.58648 70.3589 2.58648 71.4741 2.58648 72.5894C2.58648 72.7985 2.53429 73.0366 2.89961 73.0018C4.10574 72.8914 5.31186 72.8275 6.51219 72.6881C7.20223 72.6068 7.88648 72.4616 8.46054 71.9795C9.50431 71.1024 9.46372 69.9407 9.33615 68.7732C9.15639 67.0713 8.25759 66.1012 6.60497 65.7295C5.38724 65.4565 4.14633 65.5901 2.91701 65.5204C2.5111 65.4971 2.5227 65.7469 2.5285 66.0431C2.54009 67.1119 2.5285 68.1749 2.5285 69.2437H2.53429Z" fill="white"/>
<path d="M174.869 63.4063C176.446 63.4876 177.919 63.8593 178.98 65.1605C179.212 65.4451 179.664 65.7878 179.27 66.1944C178.673 66.8101 177.96 66.8449 177.565 66.3048C176.382 64.6667 173.402 64.8178 172.306 66.0492C171.419 67.0482 171.274 68.3319 172.022 69.4298C172.613 70.2952 173.431 70.8877 174.324 71.3872C175.924 72.2818 177.652 72.9614 179.027 74.2509C179.676 74.8608 180.082 75.581 180.209 76.4349C180.407 77.7592 180.418 79.0778 179.96 80.3789C179.566 81.4883 178.887 82.3596 177.838 82.8475C175.437 83.9628 173.037 84.1196 170.717 82.5978C169.911 82.0692 169.354 81.3083 168.885 80.4718C168.514 79.8097 168.885 79.5309 169.401 79.3217C169.882 79.1243 170.392 78.8222 170.694 79.6238C171.384 81.4593 172.961 81.9066 174.678 81.9646C176.429 82.0227 177.728 81.1456 178.325 79.6006C178.824 78.2994 178.795 76.1793 177.061 75.0699C176.458 74.6807 175.814 74.3554 175.199 74.0011C173.46 73.0078 171.5 72.2934 170.265 70.5799C168.74 68.4597 169.395 65.5148 171.668 64.2253C172.66 63.6619 173.715 63.3482 174.875 63.4063H174.869Z" fill="white"/>
<path d="M106.228 74.4132C106.228 71.6948 106.21 68.9764 106.245 66.2579C106.245 65.8107 106.147 65.6539 105.712 65.6539C104.21 65.6539 102.708 65.6132 101.206 65.6422C100.673 65.6539 100.406 65.497 100.481 64.9626C100.545 64.5038 100.249 63.83 101.16 63.83C105.161 63.8416 109.162 63.8474 113.163 63.8125C114.091 63.8067 113.882 64.3876 113.934 64.9278C113.998 65.59 113.697 65.6713 113.128 65.6539C111.673 65.6132 110.217 65.6539 108.768 65.6306C108.281 65.619 108.124 65.7875 108.147 66.2638C108.356 71.1662 108.182 76.0686 108.217 80.9652C108.217 81.3776 108.246 81.7901 108.275 82.2025C108.333 83.0099 108.217 83.1609 107.399 83.2364C106.28 83.3409 106.239 83.3003 106.239 82.2083C106.239 79.6118 106.239 77.0154 106.239 74.419L106.228 74.4132Z" fill="white"/>
<path d="M116.735 73.4205C116.735 70.4349 116.735 67.4493 116.735 64.4637C116.735 64.0513 116.689 63.6273 117.332 63.9467C117.576 64.0687 117.785 63.819 118.017 63.7783C118.718 63.6563 118.886 63.7899 118.886 64.5044C118.886 67.124 118.852 69.7495 118.881 72.3692C118.915 75.8136 118.724 79.2581 118.915 82.7026C118.939 83.086 118.811 83.237 118.434 83.2254C116.613 83.1673 116.851 83.6204 116.851 81.7151C116.851 78.9503 116.851 76.1796 116.851 73.4147C116.816 73.4147 116.776 73.4147 116.741 73.4147L116.735 73.4205Z" fill="white"/>
</g>
<defs>
<clipPath id="clip0_1631_2532">
<rect width="181" height="94" fill="white"/>
</clipPath>
</defs>
</svg>
